<?xml version="1.0" standalone="no"?>
<!DOCTYPE svg PUBLIC "-//W3C//DTD SVG 20010904//EN"
 "http://www.w3.org/TR/2001/REC-SVG-20010904/DTD/svg10.dtd">
<svg version="1.0" xmlns="http://www.w3.org/2000/svg"
 width="1630.000000pt" height="751.000000pt" viewBox="0 0 1630.000000 751.000000"
 preserveAspectRatio="xMidYMid meet">

<g transform="translate(0.000000,751.000000) scale(0.100000,-0.100000)"
fill="#000000" stroke="none" stroke-opacity = "0">
<path d="M0 3755 l0 -3755 8150 0 8150 0 0 3755 0 3755 -8150 0 -8150 0 0
-3755z m8179 3609 c15 -9 38 -32 51 -52 38 -55 32 -120 -33 -372 -31 -118 -62
-235 -70 -260 l-14 -45 -23 75 c-48 161 -120 463 -120 508 0 59 25 110 69 139
40 27 101 30 140 7z m-362 -161 c47 -22 74 -67 118 -193 58 -169 135 -423 130
-429 -3 -2 -27 15 -53 40 -26 25 -113 106 -193 181 -164 154 -199 199 -206
261 -14 117 95 192 204 140z m748 -14 c44 -39 60 -92 45 -151 -9 -37 -36 -67
-173 -203 -90 -88 -191 -184 -225 -213 l-61 -53 15 53 c90 303 162 508 191
541 33 37 77 57 125 57 39 0 54 -6 83 -31z m-2440 -320 c54 -15 111 -74 121
-124 9 -49 -11 -90 -45 -90 -21 0 -26 8 -41 62 -9 34 -25 74 -34 88 -53 81
-206 64 -285 -32 -75 -91 -79 -249 -10 -385 22 -44 110 -143 142 -160 15 -7
52 5 173 59 128 57 154 72 154 89 0 30 40 85 77 107 111 64 320 63 514 -4 92
-31 247 -111 360 -184 54 -35 100 -61 103 -57 17 16 4 74 -22 103 -24 27 -37
33 -85 37 -62 5 -68 11 -37 42 25 25 43 25 97 0 64 -29 86 -70 79 -151 l-5
-65 82 -52 c155 -97 258 -139 370 -151 74 -8 185 2 217 19 20 11 20 11 -4 43
-57 75 -55 184 5 267 16 22 29 42 29 44 0 2 -24 14 -52 26 -111 48 -270 21
-338 -57 -38 -43 -43 -120 -9 -154 22 -22 36 -22 136 -3 25 5 34 2 39 -11 10
-26 -9 -36 -69 -36 -137 0 -198 102 -128 213 64 101 216 141 346 92 17 -7 18
-5 8 7 -7 9 -50 34 -95 56 -141 70 -269 92 -418 73 -105 -14 -146 -4 -156 36
-9 34 0 51 36 69 84 43 224 20 396 -65 116 -57 269 -165 258 -182 -4 -6 -3 -9
2 -5 5 3 22 -5 38 -18 l30 -24 60 56 c161 149 442 276 577 260 54 -7 107 -31
116 -53 10 -27 -6 -61 -36 -74 -23 -9 -50 -9 -121 0 -148 19 -277 -3 -416 -72
-44 -22 -94 -51 -110 -64 l-29 -25 30 15 c17 8 58 19 91 26 223 44 420 -200
242 -300 -70 -39 -192 -26 -155 18 7 9 21 12 41 7 94 -20 112 -18 136 12 52
66 -7 173 -114 210 -85 28 -219 18 -271 -21 -17 -12 -18 -18 -8 -33 75 -109
81 -216 17 -293 -23 -27 -24 -29 -7 -38 50 -26 202 -32 289 -11 68 16 215 86
312 149 86 55 86 54 66 119 -8 25 16 87 43 113 59 56 159 59 151 5 -2 -18 -9
-21 -35 -19 -42 4 -97 -22 -112 -54 -12 -27 -15 -84 -4 -84 3 0 48 27 100 61
118 76 315 172 413 199 47 14 118 24 191 27 101 5 126 3 187 -16 84 -25 137
-69 147 -122 6 -34 10 -36 160 -103 l154 -68 29 21 c75 53 142 152 166 246 51
192 -34 350 -200 370 -89 11 -143 -37 -168 -148 -10 -45 -15 -52 -36 -52 -35
0 -55 40 -46 90 10 52 68 109 126 125 26 7 80 10 127 8 252 -13 379 -220 273
-445 -32 -71 -110 -159 -176 -200 -24 -16 -44 -30 -44 -34 0 -7 184 -74 288
-105 126 -36 244 -55 349 -55 151 -1 254 42 308 128 16 23 34 43 42 43 42 0
81 -58 69 -103 -15 -61 -70 -100 -170 -122 -52 -11 255 -14 1989 -14 1149 -1
2056 -5 2064 -10 7 -5 10 -14 7 -20 -10 -16 -14202 -16 -14212 0 -3 6 0 15 7
20 8 5 915 9 2064 10 1734 0 2041 3 1989 14 -100 22 -155 61 -170 122 -12 45
27 103 69 103 8 0 26 -20 42 -43 106 -169 406 -172 845 -10 55 20 100 39 100
42 0 4 -20 18 -44 34 -108 68 -201 209 -213 320 -15 145 62 257 210 308 59 21
172 24 232 8z m4745 -1505 c0 -25 -2 -25 -42 -19 -94 16 -105 45 -18 45 58 0
60 -1 60 -26z m1540 -4 l0 -30 -65 0 -65 0 0 30 0 30 65 0 65 0 0 -30z m-1719
-12 c9 -21 29 -40 54 -53 38 -19 63 -20 653 -23 685 -3 638 -8 688 68 25 37
30 40 74 40 l48 0 6 -67 c3 -38 8 -117 11 -178 3 -60 8 -143 11 -182 l6 -73
-61 0 c-61 0 -61 0 -61 30 0 45 -37 133 -68 162 -48 45 -65 49 -263 55 l-191
6 7 -639 c6 -488 11 -647 20 -671 16 -37 72 -70 137 -78 90 -13 88 -11 88 -60
l0 -45 -37 5 c-232 34 -440 57 -588 65 -99 6 -213 13 -252 16 l-73 6 0 41 0
42 74 -3 c84 -4 135 12 160 51 15 22 16 86 10 652 l-7 627 -201 -4 c-223 -4
-237 -8 -294 -72 -17 -20 -48 -65 -69 -100 -40 -70 -49 -74 -121 -60 l-30 6
23 72 c13 39 47 144 75 234 l51 162 53 0 c50 0 53 -2 67 -32z m-3981 -59 c97
-13 284 -49 299 -58 6 -4 28 -63 50 -131 42 -132 42 -139 -9 -140 -14 0 -34
-3 -45 -6 -15 -4 -24 3 -39 31 -24 44 -97 113 -157 148 -104 61 -294 84 -442
52 -83 -17 -192 -74 -257 -132 -70 -63 -141 -174 -174 -273 -24 -72 -30 -106
-34 -220 -3 -114 -1 -149 17 -224 54 -227 209 -395 399 -435 74 -15 224 -13
307 4 140 30 277 119 347 227 l32 50 56 -7 c30 -4 56 -8 57 -9 1 0 -17 -57
-39 -124 -22 -68 -38 -126 -35 -129 10 -9 157 25 190 45 18 10 42 36 54 57 12
21 142 315 289 652 l268 613 175 0 176 0 250 -588 c265 -623 292 -681 332
-724 35 -37 118 -56 173 -39 74 22 71 -9 68 629 l-3 570 -23 25 c-27 29 -89
47 -161 47 l-51 0 0 39 0 39 388 7 c583 12 825 -8 954 -77 168 -90 234 -318
141 -489 -38 -70 -147 -146 -260 -179 -24 -7 -43 -15 -43 -17 0 -2 53 -66 118
-141 65 -75 177 -207 249 -293 177 -209 212 -239 301 -254 41 -7 42 -8 42 -46
0 -37 -1 -39 -32 -39 -18 0 -80 7 -138 15 -58 8 -172 15 -255 16 -82 1 -162 4
-177 8 -21 5 -70 67 -230 291 -327 457 -298 420 -330 420 l-28 0 0 -262 c0
-240 2 -266 19 -294 22 -36 77 -54 160 -54 l51 0 0 -45 0 -45 -57 5 c-338 28
-755 40 -1325 38 l-288 -1 0 37 0 37 75 11 c98 14 129 34 121 76 -4 17 -49
130 -100 252 l-94 220 -214 2 -213 3 -87 -213 c-117 -282 -114 -272 -94 -301
15 -24 28 -28 114 -41 41 -7 42 -7 42 -47 l0 -40 -157 3 c-87 2 -211 0 -275
-5 l-118 -8 -1 38 c-1 33 -2 35 -8 14 -7 -24 -12 -26 -226 -57 -285 -41 -472
-54 -634 -42 -305 21 -505 118 -629 304 -141 209 -154 483 -35 720 143 286
411 457 776 494 101 11 310 6 427 -10z m-1671 -181 l1 -96 -42 -7 c-79 -12
-97 -16 -106 -28 -5 -7 -96 -214 -202 -462 -181 -424 -195 -453 -240 -498 -69
-68 -90 -116 -90 -209 0 -70 -5 -89 -56 -215 -31 -76 -58 -140 -59 -141 -4 -5
-401 -52 -430 -52 -15 1 -27 16 -46 58 l-26 58 161 18 c235 25 218 20 240 74
122 302 552 1317 616 1454 13 28 40 40 114 53 l38 6 -4 79 -3 80 45 5 c25 4
52 7 60 8 19 3 28 -53 29 -185z m3598 -464 l281 -656 -37 7 c-23 4 -46 17 -63
37 -17 20 -130 270 -284 633 -141 330 -261 608 -266 618 -8 15 -3 17 40 17
l49 0 280 -656z m-4267 557 l0 -78 45 -13 c25 -7 48 -16 50 -20 7 -11 -15 -70
-26 -70 -5 0 -9 -7 -9 -15 0 -12 -16 -15 -80 -15 -73 0 -82 -2 -110 -27 -18
-17 -73 -112 -135 -232 l-105 -203 63 -138 64 -137 -22 -49 -22 -49 -16 31
c-8 17 -56 119 -106 227 l-91 197 86 172 c105 209 155 291 190 307 15 7 56 15
91 18 l63 6 0 83 0 84 35 0 35 0 0 -79z m-144 -17 c-3 -8 -20 -14 -38 -14 -18
0 -52 -9 -75 -20 -55 -24 -99 -93 -226 -346 l-96 -191 110 -239 c61 -131 126
-274 146 -317 20 -43 39 -74 43 -70 4 4 40 89 80 188 40 99 140 339 222 534
81 195 148 367 148 382 0 33 -19 54 -66 74 -32 13 -34 17 -34 61 l0 46 46 -7
c60 -9 248 -9 307 0 l47 7 0 -45 0 -45 -46 -11 c-25 -7 -55 -22 -68 -34 -24
-24 -204 -436 -473 -1082 -96 -231 -178 -423 -182 -427 -6 -6 -256 -38 -299
-38 -15 0 -43 51 -132 246 -114 245 -114 245 -129 217 -8 -15 -68 -140 -132
-278 l-117 -250 -163 -22 c-90 -13 -166 -19 -170 -15 -15 16 -314 718 -518
1215 -157 383 -163 396 -218 422 -41 20 -42 21 -43 70 l0 50 282 0 c156 0 318
4 361 8 l78 8 -3 -53 c-3 -52 -3 -53 -40 -59 -51 -8 -68 -25 -68 -67 0 -53
504 -1226 525 -1222 10 1 175 344 175 362 0 11 -301 706 -340 784 -43 86 -72
110 -160 133 l-75 19 -3 47 -3 47 218 -3 c120 -2 307 0 416 5 l197 9 0 -45 c0
-48 -9 -58 -54 -58 -36 0 -66 -28 -66 -61 0 -44 120 -329 138 -329 4 0 40 64
80 143 98 191 96 217 -15 247 -43 11 -43 11 -43 56 l0 46 163 -6 c89 -4 196
-3 237 1 l75 8 3 -34 c2 -18 1 -39 -2 -47z m-2587 -261 c116 -379 340 -1089
400 -1270 22 -65 39 -118 38 -119 -1 0 -21 1 -45 4 -39 4 -45 8 -66 51 -34 67
-252 743 -469 1459 l-65 212 52 0 52 0 103 -337z m11664 326 l477 3 1 -33 c0
-19 6 -114 12 -211 l12 -178 -30 1 c-73 3 -86 11 -106 65 -27 72 -79 128 -152
163 -55 27 -78 31 -207 40 -141 10 -327 5 -350 -9 -9 -5 -10 -84 -4 -303 l7
-295 96 -8 c53 -4 148 -8 211 -8 169 -1 196 19 222 167 l11 59 36 -6 c20 -3
44 -6 54 -6 17 0 18 -13 15 -197 -2 -109 1 -258 5 -332 l9 -134 -56 5 c-31 3
-59 7 -62 11 -4 3 -10 43 -15 87 -8 88 -36 157 -70 178 -25 16 -152 38 -264
46 -44 4 -106 9 -137 12 l-58 6 0 -289 c0 -158 3 -311 6 -340 l7 -51 116 -30
c190 -50 230 -56 371 -56 108 -1 146 3 189 18 72 25 131 85 173 176 l33 72 52
-4 c29 -3 55 -7 58 -9 2 -3 -19 -114 -48 -246 l-52 -242 -25 5 c-550 100 -857
147 -1130 174 -168 17 -333 33 -367 36 l-63 7 0 47 0 48 59 -5 c71 -7 126 10
148 44 15 22 16 85 10 684 -5 504 -10 667 -19 687 -20 40 -71 64 -149 70 l-69
5 0 45 0 45 283 -9 c155 -5 497 -7 760 -5z m607 -83 l0 -94 96 -4 c86 -3 98
-5 115 -27 10 -13 19 -36 19 -52 l0 -29 -76 0 -76 0 6 -57 c3 -32 8 -102 12
-155 l6 -98 -95 0 -95 0 -6 -27 c-14 -74 -17 -334 -6 -492 8 -109 9 -176 3
-180 -5 -3 -18 -30 -28 -58 -22 -60 -8 -57 -170 -40 l-110 12 -3 54 -3 53 38
-6 c21 -3 65 -8 97 -12 l59 -7 -9 169 c-12 217 -8 586 6 594 8 5 8 15 0 34
l-10 27 100 -7 c57 -4 100 -3 100 2 0 5 -7 104 -15 219 -20 291 -21 275 15
275 l30 0 0 -94z m1068 73 c194 -18 303 -58 374 -137 91 -101 128 -208 135
-388 11 -267 -58 -403 -252 -499 -44 -22 -81 -41 -83 -42 -2 -1 52 -100 121
-220 69 -120 175 -309 236 -421 168 -308 240 -402 307 -402 23 0 24 -3 24 -65
0 -36 -3 -65 -8 -65 -4 0 -70 18 -147 40 -83 24 -203 49 -296 62 l-156 22 -48
105 c-80 175 -445 925 -453 932 -4 3 -20 9 -36 13 l-28 7 4 -373 c4 -330 6
-377 22 -406 22 -43 64 -67 142 -83 l64 -13 0 -59 c0 -51 -2 -58 -17 -53 -10
2 -45 10 -78 16 -33 6 -136 29 -230 50 -128 29 -518 90 -578 90 -4 0 -7 24 -7
53 l0 54 79 -5 c76 -4 79 -3 112 26 32 29 34 34 37 109 1 43 -1 389 -5 770 -8
680 -8 692 -29 720 -30 40 -69 57 -146 61 l-68 4 0 54 0 54 348 2 c402 3 505
1 660 -13z m-7822 0 c42 -11 45 -14 56 -58 6 -25 37 -121 68 -212 l56 -166
-150 -22 c-82 -11 -150 -20 -151 -18 0 1 -15 26 -33 56 -18 29 -31 55 -29 57
2 3 208 34 222 34 1 0 -22 71 -51 158 -30 86 -54 163 -54 170 0 15 9 15 66 1z
m-5662 -422 c210 -683 374 -1187 408 -1257 39 -77 60 -90 146 -90 l62 0 0 -55
c0 -49 -2 -55 -22 -59 -47 -10 -159 -26 -318 -46 -91 -11 -253 -40 -360 -65
-107 -25 -196 -45 -197 -45 -2 0 -3 26 -3 59 l0 59 37 7 c56 10 120 44 138 72
13 19 15 36 10 70 -6 39 -181 622 -189 631 -4 4 -416 -44 -420 -49 -13 -16
-180 -667 -184 -719 -6 -82 5 -93 94 -98 l64 -4 0 -58 c0 -68 15 -61 -170 -84
-63 -8 -158 -28 -210 -44 -52 -16 -110 -33 -127 -37 l-33 -7 0 64 0 63 59 23
c80 31 136 74 161 122 11 22 68 210 126 418 153 549 437 1522 451 1545 2 4 82
7 176 7 l172 0 129 -423z m8791 387 c22 -15 58 -44 81 -66 l41 -39 -15 -55
c-15 -52 -32 -72 -32 -36 0 30 -50 125 -91 175 -46 53 -41 59 16 21z m5230
-109 c57 -57 112 -156 145 -260 31 -98 39 -312 16 -417 -33 -148 -113 -267
-230 -340 -28 -17 -52 -33 -54 -34 -2 -1 55 -105 126 -230 71 -126 164 -294
207 -374 43 -80 90 -163 105 -185 45 -68 45 -66 13 -59 -15 3 -38 13 -50 20
-32 20 -106 135 -203 314 -61 115 -286 517 -336 602 -2 3 22 21 53 38 125 71
208 187 240 333 19 91 13 314 -11 402 -25 90 -74 182 -131 243 l-50 56 55 -30
c30 -16 77 -52 105 -79z m-8851 19 c85 -22 150 -60 202 -118 25 -27 43 -50 41
-53 -2 -2 -24 8 -48 21 -25 14 -74 32 -109 40 -190 45 -375 -6 -499 -139 -72
-77 -105 -138 -132 -243 -23 -93 -25 -259 -4 -351 18 -75 72 -182 122 -240 41
-48 34 -52 -28 -13 -98 63 -190 201 -225 342 -25 101 -16 302 19 400 64 181
197 309 367 354 74 20 217 20 294 0z m2270 -3 c10 -8 16 -29 16 -52 l0 -39
-80 0 -80 0 0 56 0 56 64 -4 c35 -2 71 -10 80 -17z m-5133 -28 c11 -11 -54
-153 -70 -153 -7 0 -71 139 -71 154 0 17 124 16 141 -1z m8603 -4 c10 -10 15
-65 20 -203 l6 -189 -62 7 c-33 3 -101 6 -149 6 l-89 0 0 55 0 55 90 0 90 0 0
53 c0 77 -11 127 -26 127 -10 0 -14 15 -14 56 l0 56 60 -4 c35 -2 66 -11 74
-19z m-9444 -11 c44 -13 67 -33 90 -79 l19 -36 -45 10 c-24 6 -47 8 -50 4 -3
-3 76 -198 177 -432 l182 -427 -24 -49 -24 -50 -122 278 c-272 624 -337 784
-322 794 15 9 61 4 119 -13z m-754 -61 l26 -50 -24 6 c-12 4 -31 7 -40 7 -15
0 -18 9 -18 50 0 63 20 59 56 -13z m8864 9 l0 -53 -112 -6 c-130 -7 -121 -1
-206 -137 l-60 -95 -96 -3 -95 -3 -12 -42 c-27 -103 -96 -187 -203 -247 -31
-18 -56 -34 -56 -37 0 -6 312 -374 374 -440 52 -57 53 -60 3 -40 -48 21 -123
98 -335 349 l-192 228 58 29 c133 67 210 162 228 278 l7 46 101 -6 102 -6 48
81 c62 102 100 146 134 151 15 2 91 5 170 6 l142 1 0 -54z m908 25 c24 -13 62
-67 62 -89 0 -10 -26 -13 -121 -10 l-121 3 7 -569 8 -569 -42 7 c-48 7 -79 24
-85 46 -3 8 -8 282 -12 609 l-7 594 144 -5 c88 -3 153 -9 167 -17z m1335 -11
c156 -13 227 -44 270 -119 l19 -32 -39 16 c-29 13 -84 18 -227 22 l-189 6 6
-187 7 -187 -63 3 -62 3 -6 60 c-4 33 -7 140 -8 237 l-1 177 33 4 c62 7 143 7
260 -3z m-5299 -672 l24 -53 -127 -3 -127 -3 -49 -117 c-27 -64 -56 -135 -66
-158 l-17 -41 -73 9 c-40 5 -75 11 -77 13 -3 2 33 95 79 205 l83 200 164 0
163 0 23 -52z m1610 -100 l56 -77 0 -110 0 -111 -39 0 c-22 0 -51 4 -65 10
l-26 10 0 187 c0 107 4 183 9 178 4 -6 34 -45 65 -87z m3676 11 c36 -6 73 -18
82 -27 15 -13 42 -81 35 -88 -1 -1 -22 1 -47 6 -25 4 -82 10 -127 14 l-83 6 0
-230 c0 -184 -3 -230 -13 -230 -7 0 -37 7 -65 15 l-52 16 0 271 0 271 103 -7
c56 -3 131 -11 167 -17z m-6023 -103 c3 -2 -12 -37 -34 -77 -28 -55 -45 -75
-66 -82 -16 -5 -30 -7 -33 -5 -2 3 7 36 20 74 39 113 35 107 74 100 19 -3 37
-7 39 -10z m-6093 -232 l7 -31 -113 -12 c-62 -7 -113 -13 -114 -14 -2 -3 -154
-567 -154 -572 0 -3 -31 -5 -70 -5 -70 0 -70 0 -70 28 0 25 164 649 173 658 2
2 73 12 158 21 l154 18 11 -30 c6 -17 14 -44 18 -61z m3726 50 c47 -31 97
-102 106 -151 35 -186 -99 -351 -294 -361 -108 -6 -212 41 -254 116 l-18 30
50 -19 c103 -39 217 -17 301 58 65 60 88 109 89 191 0 68 -18 123 -53 160
l-22 23 27 -10 c15 -6 45 -22 68 -37z m-156 3 c47 -37 68 -79 68 -138 -1 -59
-19 -95 -71 -142 -91 -82 -245 -73 -301 18 -24 39 -28 112 -10 160 16 41 67
94 115 117 60 28 151 21 199 -15z m10116 -422 c3 -99 4 -181 4 -183 -1 -1 -26
5 -55 15 -76 25 -78 34 -78 338 l0 250 62 -120 62 -120 5 -180z m-7092 360 c9
-3 12 -39 12 -135 l0 -130 -222 0 c-123 0 -290 -5 -373 -10 -82 -5 -152 -5
-155 0 -3 4 -77 -3 -165 -15 -265 -39 -460 -51 -618 -37 -312 28 -523 122
-660 296 l-32 40 55 -43 c241 -190 605 -227 1263 -128 55 9 87 10 87 4 0 -7
51 -7 148 -1 81 5 236 7 345 5 l197 -3 0 84 0 85 53 -4 c28 -3 58 -6 65 -8z
m-4193 -240 c-76 -167 -148 -321 -154 -328 -8 -8 -439 -69 -454 -64 -8 2 -58
109 -54 114 1 1 88 13 192 28 105 14 193 29 196 33 4 4 35 68 69 142 35 74 81
173 103 220 l40 85 42 -90 43 -90 -23 -50z m6309 193 c12 -17 16 -50 16 -140
l0 -118 -72 1 c-40 0 -127 5 -193 10 -194 15 -955 33 -1287 30 l-308 -3 0 55
0 54 81 7 c120 11 1001 -3 1244 -19 116 -8 254 -17 308 -20 l97 -6 0 85 0 86
49 0 c40 0 53 -4 65 -22z m4222 -8 l34 0 0 -100 c0 -56 -7 -133 -17 -176 l-17
-77 -70 7 c-38 4 -71 8 -72 9 -2 2 64 315 71 336 3 7 12 10 21 7 9 -3 31 -6
50 -6z m-3300 -30 c11 0 14 -20 14 -86 0 -77 2 -86 20 -91 17 -4 20 -14 20
-54 l0 -49 -42 0 c-24 0 -97 8 -163 16 -66 9 -220 19 -343 22 l-222 7 -24 30
c-14 17 -32 43 -42 59 l-17 29 184 -7 c101 -4 238 -13 304 -21 66 -8 146 -16
178 -20 l57 -5 0 91 0 92 31 -7 c17 -3 38 -6 45 -6z m-8141 -59 c63 -36 63
-36 109 -145 33 -78 37 -94 31 -140 -11 -84 -51 -160 -116 -220 -102 -94 -226
-116 -334 -58 l-55 30 0 -29 c0 -16 -3 -29 -7 -29 -5 0 -46 -7 -93 -15 -47 -8
-173 -26 -280 -39 -116 -15 -285 -45 -415 -75 -121 -28 -239 -53 -262 -57
l-43 -7 0 67 c0 36 3 66 6 66 4 0 104 22 223 49 119 28 279 57 356 66 132 15
295 38 358 51 25 5 27 9 27 60 l0 55 30 -35 c64 -73 170 -95 276 -59 70 23
155 110 180 183 34 101 18 228 -38 287 -29 31 -13 29 47 -6z m-144 -4 c75 -50
103 -135 75 -229 -32 -110 -130 -184 -232 -176 -67 6 -101 29 -131 88 -41 79
-25 178 42 266 54 71 178 97 246 51z m9492 -37 l27 0 0 -145 c0 -109 -3 -145
-12 -145 -22 0 -255 29 -413 50 -118 16 -569 49 -692 50 -21 0 -23 5 -23 55
l0 55 103 -6 c284 -15 411 -27 615 -54 123 -17 239 -30 258 -30 l34 0 0 91 0
92 38 -7 c20 -3 49 -6 65 -6z m602 -250 c176 -17 412 -47 525 -66 679 -116
866 -146 1047 -169 111 -14 260 -39 330 -56 140 -33 408 -89 430 -89 10 0 13
24 13 109 l0 108 43 -8 c23 -4 46 -8 50 -9 4 0 15 -16 23 -35 15 -38 21 -285
6 -285 -16 0 -346 69 -477 99 -71 17 -220 42 -330 56 -238 30 -266 34 -825
130 -327 56 -503 80 -710 100 -151 14 -319 30 -372 37 l-98 11 0 48 c0 33 4
49 13 49 6 0 156 -14 332 -30z m-11667 -392 l-3 -152 -62 -13 c-34 -6 -114
-19 -178 -27 -64 -9 -169 -31 -233 -50 -65 -19 -142 -39 -172 -46 -30 -6 -63
-14 -72 -17 -16 -4 -18 4 -18 65 l0 70 36 6 c19 4 79 21 132 37 53 17 144 37
202 45 58 7 135 19 173 25 l67 11 0 99 0 99 65 0 66 0 -3 -152z m15025 32 l57
-11 0 -165 c0 -153 -1 -165 -17 -160 -10 3 -57 14 -104 25 -47 11 -132 33
-188 50 -56 17 -152 37 -214 46 -248 35 -246 34 -262 66 -22 42 -36 81 -27 76
4 -3 68 -13 142 -22 74 -9 187 -32 251 -50 106 -31 191 -53 262 -69 l27 -6 0
120 c0 67 3 119 8 117 4 -3 33 -10 65 -17z m-2816 -181 c29 -14 52 -35 69 -64
l25 -43 -3 -344 c-3 -341 -3 -343 -26 -376 -13 -18 -41 -41 -63 -52 -38 -20
-72 -20 -4987 -18 l-4949 3 -36 28 c-72 55 -72 52 -72 428 l0 335 28 43 c18
27 44 50 70 62 41 18 151 19 4971 19 l4930 0 43 -21z m2038 -1449 c0 -13 -237
-15 -2060 -18 -1787 -3 -2052 -5 -1996 -17 143 -31 213 -133 141 -205 -28 -28
-57 -25 -74 8 -66 127 -260 172 -523 121 -106 -20 -346 -94 -405 -125 l-30
-16 49 -33 c112 -76 197 -206 209 -321 13 -127 -44 -227 -163 -286 -55 -27
-79 -33 -155 -36 -106 -5 -162 12 -207 63 -55 63 -50 160 9 160 21 0 26 -7 36
-52 24 -110 79 -159 166 -149 237 25 294 343 100 558 -19 21 -48 48 -63 59
l-28 20 -156 -68 c-129 -57 -155 -71 -155 -89 0 -39 -43 -88 -105 -119 -58
-29 -64 -30 -200 -30 -116 0 -154 4 -222 24 -103 29 -310 130 -430 209 -72 48
-93 57 -97 45 -13 -32 -5 -64 22 -94 24 -27 37 -33 85 -37 31 -2 57 -7 57 -11
0 -19 -34 -51 -53 -51 -40 1 -106 38 -127 72 -17 26 -20 46 -18 98 l3 65 -65
43 c-90 60 -232 128 -309 148 -72 18 -237 16 -283 -4 l-28 -11 25 -37 c24 -35
45 -93 45 -125 0 -34 -32 -120 -55 -147 -14 -17 -25 -32 -25 -35 0 -2 24 -15
53 -28 109 -48 268 -21 337 58 24 27 30 43 30 82 0 65 -31 96 -87 87 -82 -15
-108 -13 -108 9 0 17 8 21 50 23 104 7 175 -41 175 -119 0 -138 -168 -237
-331 -194 -35 9 -73 18 -83 20 -11 3 -29 14 -41 25 l-21 20 -45 -46 c-125
-128 -383 -257 -540 -271 -53 -5 -74 -2 -112 15 -51 23 -62 39 -53 76 10 40
51 49 159 35 164 -21 318 12 470 102 74 44 84 59 21 33 -51 -22 -176 -23 -225
-2 -87 38 -157 136 -145 202 6 33 42 74 83 95 31 16 128 14 142 -3 9 -10 7
-16 -5 -27 -12 -10 -24 -10 -60 -1 -64 17 -82 15 -109 -13 -29 -28 -32 -71 -9
-121 36 -76 173 -126 287 -105 53 10 117 35 117 46 0 3 -14 29 -30 59 -53 93
-50 188 7 256 l25 30 -29 12 c-15 6 -71 14 -124 16 -114 5 -187 -11 -299 -64
-80 -38 -250 -141 -250 -152 0 -4 4 -23 10 -42 14 -49 -3 -102 -45 -139 -58
-50 -145 -51 -145 -1 0 16 7 20 34 20 48 0 92 18 110 45 16 24 22 95 9 95 -3
0 -48 -27 -100 -61 -122 -79 -314 -171 -417 -201 -67 -19 -105 -23 -221 -23
-136 0 -142 1 -200 30 -62 31 -105 80 -105 119 0 18 -26 32 -155 89 l-156 68
-28 -20 c-74 -53 -141 -152 -165 -246 -51 -192 37 -353 202 -371 87 -10 142
39 166 149 10 45 15 52 36 52 59 0 64 -97 9 -160 -45 -51 -101 -68 -206 -63
-208 10 -337 138 -320 320 10 113 97 247 210 323 l49 33 -30 16 c-59 31 -299
105 -405 125 -263 51 -457 6 -523 -121 -17 -33 -46 -36 -74 -8 -72 72 -2 174
141 205 55 12 -212 14 -1993 14 -1360 1 -2059 4 -2063 11 -3 6 -3 15 0 20 4 7
2378 9 7108 8 6305 -3 7102 -5 7102 -18z m-6897 -571 c125 -59 259 -79 396
-59 100 14 142 4 152 -36 9 -37 -2 -53 -53 -76 -83 -37 -220 -10 -393 77 -83
42 -208 124 -236 157 -16 18 -12 17 26 -6 25 -15 73 -41 108 -57z m-275 -101
c-44 -152 -116 -375 -143 -444 -43 -113 -89 -154 -172 -154 -66 0 -109 35
-128 103 -18 61 1 108 78 189 55 58 372 358 379 358 1 0 -5 -24 -14 -52z m292
-128 c243 -225 278 -273 261 -363 -24 -126 -194 -148 -265 -34 -30 49 -116
301 -188 551 -8 29 12 13 192 -154z m-191 -45 c58 -212 96 -381 96 -427 0
-153 -179 -216 -261 -92 -31 48 -32 93 -5 215 46 204 119 461 127 447 4 -7 23
-71 43 -143z"/>
<path d="M6580 6421 c-47 -10 -132 -36 -190 -58 -131 -50 -360 -154 -360 -164
0 -17 130 -51 220 -56 180 -11 331 37 429 135 40 41 101 134 101 157 0 11
-119 3 -200 -14z"/>
<path d="M9425 6419 c13 -42 76 -128 119 -164 102 -83 241 -122 406 -112 90 5
220 39 220 56 0 9 -221 110 -340 157 -121 46 -232 74 -329 81 l-83 6 7 -24z"/>
<path d="M6839 6389 c-115 -226 -482 -331 -797 -228 l-63 21 -92 -40 c-192
-84 -345 -132 -503 -156 -78 -12 66 -14 1191 -14 1116 0 1272 1 1216 13 -80
18 -193 55 -336 112 -60 23 -113 43 -118 43 -4 0 -30 -15 -57 -34 -83 -57
-138 -71 -275 -70 -104 0 -128 3 -179 25 -103 42 -122 105 -46 157 52 35 105
45 220 39 86 -3 124 -11 212 -41 119 -40 118 -40 118 -26 0 12 -101 78 -227
149 -83 46 -194 91 -227 91 -9 0 -25 -18 -37 -41z"/>
<path d="M9240 6407 c-67 -24 -181 -86 -303 -164 -100 -64 -78 -74 59 -27 90
31 127 38 211 42 121 5 181 -8 230 -51 90 -79 -3 -161 -199 -174 -135 -9 -237
17 -327 85 l-34 25 -46 -18 c-134 -51 -358 -126 -418 -139 -61 -13 65 -14
1212 -14 1125 0 1269 2 1191 14 -157 24 -299 68 -504 155 l-94 40 -61 -20
c-190 -62 -421 -49 -591 35 -77 37 -160 114 -198 181 -17 31 -37 53 -46 53
-10 0 -46 -11 -82 -23z"/>
<path d="M8069 6318 c-30 -32 -39 -61 -39 -124 0 -59 15 -97 50 -129 l22 -20
28 32 c58 64 59 167 3 234 -30 35 -36 36 -64 7z"/>
<path d="M6900 6219 c-39 -12 -77 -43 -85 -70 -10 -30 14 -60 63 -82 60 -26
201 -29 283 -4 55 16 139 69 139 87 0 5 -44 23 -97 40 -108 35 -242 47 -303
29z"/>
<path d="M9095 6215 c-33 -8 -91 -24 -129 -37 l-69 -24 39 -32 c65 -54 134
-75 249 -76 88 0 107 3 150 24 44 22 50 29 53 61 2 25 -3 40 -17 53 -49 45
-160 57 -276 31z"/>
<path d="M7350 6172 c0 -10 70 -45 77 -39 4 5 -60 47 -71 47 -3 0 -6 -4 -6 -8z"/>
<path d="M8792 6153 c-24 -14 -41 -28 -38 -30 6 -7 106 38 106 48 0 15 -23 9
-68 -18z"/>
<path d="M8087 6004 c-4 -4 -28 -13 -54 -20 -47 -12 -45 -13 67 -13 110 0 113
1 70 13 -25 7 -52 16 -61 20 -8 4 -18 4 -22 0z"/>
<path d="M9480 4911 l0 -269 48 -6 c63 -9 198 10 236 32 17 10 41 40 56 67 23
45 25 60 25 175 0 109 -3 130 -21 165 -45 83 -94 104 -241 105 l-103 0 0 -269z
m230 184 c29 -15 41 -31 59 -77 8 -22 7 -23 -40 -20 l-49 4 0 -145 0 -144 -37
-7 c-21 -3 -50 -6 -65 -6 l-28 0 0 153 c0 83 -3 176 -6 205 l-7 52 72 0 c45 0
83 -6 101 -15z"/>
<path d="M7816 4929 c-8 -19 -44 -101 -80 -184 -36 -82 -66 -153 -66 -157 0
-5 72 -8 160 -8 88 0 160 4 160 9 0 9 -148 363 -155 370 -3 2 -11 -11 -19 -30z
m65 -256 c8 -22 7 -23 -52 -23 -33 0 -58 3 -56 8 3 4 17 34 32 67 l27 60 20
-45 c11 -25 24 -55 29 -67z"/>
<path d="M14670 4737 l0 -375 70 -7 c229 -23 300 63 300 363 0 144 -11 209
-48 281 -39 78 -86 101 -221 108 l-101 6 0 -376z m217 277 c23 -14 63 -70 63
-86 0 -5 -18 -8 -40 -8 l-40 0 -2 -247 -3 -248 -62 -3 -63 -3 0 312 0 312 62
-7 c34 -3 72 -13 85 -22z"/>
<path d="M996 4759 c-23 -64 -158 -540 -155 -543 7 -6 319 27 319 34 0 11
-150 513 -155 518 -2 3 -7 -1 -9 -9z m43 -342 c18 -60 31 -110 29 -112 -2 -1
-33 -5 -70 -9 l-67 -6 18 62 c43 147 53 179 56 176 1 -2 17 -52 34 -111z"/>
<path d="M7517 2691 c-3 -16 -9 -40 -13 -55 -8 -35 18 -35 40 -1 12 19 25 25
52 25 l35 0 -3 -132 c-3 -129 -4 -133 -25 -136 -13 -2 -23 -8 -23 -13 0 -5 43
-9 95 -9 88 0 122 11 75 23 -19 5 -20 14 -20 136 l0 131 24 0 c35 0 56 -10 56
-26 0 -8 9 -14 20 -14 22 0 25 15 14 69 -7 33 -28 42 -38 16 -4 -12 -27 -15
-121 -15 -94 0 -117 3 -121 15 -11 26 -41 17 -47 -14z"/>
<path d="M11037 2691 c-3 -16 -9 -40 -13 -55 -8 -35 18 -35 40 -1 12 19 25 25
52 25 l35 0 -3 -132 c-3 -129 -4 -133 -25 -136 -13 -2 -23 -8 -23 -13 0 -5 43
-9 95 -9 88 0 122 11 75 23 -19 5 -20 14 -20 136 l0 131 24 0 c35 0 56 -10 56
-26 0 -8 9 -14 20 -14 22 0 25 15 14 69 -7 33 -28 42 -38 16 -4 -12 -27 -15
-121 -15 -94 0 -117 3 -121 15 -11 26 -41 17 -47 -14z"/>
<path d="M5585 2686 c-38 -17 -80 -62 -94 -99 -29 -75 5 -167 71 -197 45 -20
190 -28 216 -12 7 5 16 23 21 40 8 26 7 32 -6 32 -9 0 -26 -11 -39 -25 -46
-49 -103 -43 -148 18 -30 40 -30 144 0 184 43 58 104 66 148 18 33 -35 50 -33
42 7 -3 17 -9 34 -12 37 -13 13 -170 11 -199 -3z"/>
<path d="M6238 2693 c-50 -4 -63 -17 -28 -26 19 -5 20 -14 20 -136 0 -144 -4
-154 -58 -135 -21 8 -33 30 -76 152 l-51 143 -39 -3 -39 -3 -52 -139 c-38
-104 -57 -142 -73 -149 -37 -17 -24 -27 33 -27 54 0 70 11 40 27 -13 8 -13 15
3 63 18 51 21 55 53 58 34 3 35 2 53 -53 18 -57 15 -75 -10 -75 -8 0 -14 -4
-14 -10 0 -6 77 -10 210 -10 223 0 256 6 280 49 25 47 -1 131 -40 131 -5 0 -1
9 10 20 27 27 26 81 -1 106 -22 20 -113 27 -221 17z m130 -35 c27 -27 9 -98
-25 -98 -9 0 -13 17 -13 55 0 56 12 69 38 43z m-379 -105 c1 -7 -8 -13 -19
-13 -23 0 -23 0 -9 37 10 26 12 27 19 8 5 -11 9 -26 9 -32z m389 -29 c27 -19
31 -93 6 -118 -34 -35 -54 -8 -54 71 0 68 8 76 48 47z"/>
<path d="M8835 2675 c-30 -29 -31 -48 -5 -90 l20 -33 -30 -12 c-63 -26 -80
-96 -36 -147 22 -26 30 -28 93 -27 37 0 79 2 93 3 14 1 44 -1 68 -5 52 -8 108
12 92 31 -6 7 -20 10 -32 7 -14 -3 -26 2 -38 18 -17 23 -17 25 13 73 16 27 36
51 43 54 31 12 11 23 -41 23 -58 0 -66 -5 -38 -25 15 -11 15 -17 5 -39 -15
-34 -22 -33 -50 9 l-22 35 21 29 c49 67 15 121 -78 121 -44 0 -58 -5 -78 -25z
m125 -51 c0 -13 -4 -25 -8 -28 -13 -8 -45 53 -38 71 6 14 9 14 26 -2 11 -10
20 -28 20 -41z m-50 -157 c45 -66 44 -63 25 -71 -24 -9 -52 10 -71 45 -15 30
-13 79 4 79 4 0 23 -24 42 -53z"/>
<path d="M4020 2681 c0 -5 9 -11 20 -14 19 -5 20 -14 20 -137 0 -123 -1 -132
-20 -137 -47 -12 -13 -23 75 -23 91 0 123 11 70 24 -23 6 -25 10 -25 72 l0 65
38 -3 c27 -2 40 -9 47 -25 18 -42 35 -27 35 32 0 59 -14 72 -38 35 -8 -14 -23
-20 -47 -20 l-35 0 0 55 0 55 39 0 c27 0 49 -8 69 -25 42 -35 54 -32 50 13
l-3 37 -147 3 c-84 1 -148 -1 -148 -7z"/>
<path d="M4330 2681 c0 -5 9 -11 20 -14 19 -5 20 -14 20 -137 0 -123 -1 -132
-20 -137 -47 -12 -14 -23 70 -23 84 0 117 11 70 23 -20 5 -20 12 -18 139 3
129 4 133 26 136 12 2 22 8 22 13 0 5 -43 9 -95 9 -52 0 -95 -4 -95 -9z"/>
<path d="M4550 2681 c0 -5 9 -11 20 -14 19 -5 20 -14 20 -137 0 -123 -1 -132
-20 -137 -40 -11 -18 -23 40 -23 58 0 80 12 40 23 -18 5 -20 14 -20 93 0 48 4
84 8 79 5 -6 43 -52 86 -102 73 -88 79 -93 117 -93 l39 0 0 146 c0 137 1 146
20 151 40 11 18 23 -40 23 -58 0 -80 -12 -40 -23 18 -5 20 -14 20 -102 l0 -97
-92 111 -93 110 -52 1 c-29 0 -53 -4 -53 -9z"/>
<path d="M4950 2681 c0 -5 9 -11 20 -14 19 -5 20 -14 20 -137 0 -123 -1 -132
-20 -137 -55 -14 -5 -23 134 -23 l154 0 6 28 c4 15 9 35 12 45 8 25 -33 23
-41 -2 -8 -25 -67 -45 -111 -37 l-34 7 0 59 0 60 40 0 c34 0 41 -4 46 -25 3
-14 12 -25 20 -25 10 0 14 15 14 60 0 64 -16 81 -35 38 -7 -17 -20 -24 -47
-26 l-38 -3 0 57 0 57 52 -5 c39 -4 56 -11 66 -27 23 -35 42 -26 42 19 l0 40
-150 0 c-82 0 -150 -4 -150 -9z"/>
<path d="M6540 2681 c0 -5 9 -11 20 -14 19 -5 20 -14 20 -137 0 -123 -1 -132
-20 -137 -47 -12 -14 -23 70 -23 84 0 117 11 70 23 -20 5 -20 12 -18 139 3
129 4 133 26 136 12 2 22 8 22 13 0 5 -43 9 -95 9 -52 0 -95 -4 -95 -9z"/>
<path d="M6760 2681 c0 -5 9 -11 20 -14 19 -5 20 -14 20 -137 0 -123 -1 -132
-20 -137 -40 -11 -18 -23 40 -23 58 0 80 12 40 23 -18 5 -20 14 -20 93 0 48 4
84 8 79 5 -6 43 -52 86 -102 73 -88 79 -93 117 -93 l39 0 0 146 c0 137 1 146
20 151 40 11 18 23 -40 23 -58 0 -80 -12 -40 -23 18 -5 20 -14 20 -102 l0 -97
-92 111 -93 110 -52 1 c-29 0 -53 -4 -53 -9z"/>
<path d="M7160 2681 c0 -5 9 -11 20 -14 19 -5 20 -14 20 -137 0 -123 -1 -132
-20 -137 -55 -14 -5 -23 134 -23 l154 0 6 28 c4 15 9 35 12 45 8 25 -33 23
-41 -2 -8 -25 -67 -45 -111 -37 l-34 7 0 59 0 60 40 0 c34 0 41 -4 46 -25 3
-14 12 -25 20 -25 10 0 14 15 14 60 0 64 -16 81 -35 38 -7 -17 -20 -24 -47
-26 l-38 -3 0 57 0 57 52 -5 c39 -4 56 -11 66 -27 23 -35 42 -26 42 19 l0 40
-150 0 c-82 0 -150 -4 -150 -9z"/>
<path d="M7880 2681 c0 -5 9 -11 20 -14 19 -5 20 -14 20 -137 0 -123 -1 -132
-20 -137 -47 -12 -14 -23 70 -23 84 0 117 11 70 23 -17 4 -20 14 -20 61 0 31
2 56 5 56 2 0 23 -31 46 -70 l41 -70 64 0 c66 0 78 7 45 27 -10 7 -39 39 -65
71 l-45 59 25 11 c50 23 53 95 7 132 -22 17 -41 20 -144 20 -66 0 -119 -4
-119 -9z m188 -23 c17 -17 15 -74 -4 -92 -32 -32 -44 -20 -44 44 0 51 3 60 18
60 10 0 23 -5 30 -12z"/>
<path d="M8200 2681 c0 -5 8 -12 18 -15 9 -3 41 -43 70 -88 44 -69 52 -88 52
-129 0 -43 -3 -49 -25 -55 -53 -13 -21 -24 70 -24 88 0 122 11 75 23 -17 4
-20 14 -20 63 0 52 5 65 48 131 26 40 55 75 65 79 35 11 15 24 -38 24 -57 0
-65 -5 -40 -24 12 -9 9 -19 -19 -65 l-34 -54 -36 54 c-31 47 -34 56 -21 65 27
20 16 24 -75 24 -49 0 -90 -4 -90 -9z"/>
<path d="M9340 2681 c0 -5 9 -11 20 -14 19 -5 20 -14 20 -137 0 -123 -1 -132
-20 -137 -47 -12 -13 -23 75 -23 91 0 123 11 70 24 -23 6 -25 10 -25 72 l0 65
38 -3 c27 -2 40 -9 47 -25 18 -42 35 -27 35 32 0 59 -14 72 -38 35 -8 -14 -23
-20 -47 -20 l-35 0 0 55 0 55 39 0 c27 0 49 -8 69 -25 42 -35 54 -32 50 13
l-3 37 -147 3 c-84 1 -148 -1 -148 -7z"/>
<path d="M9650 2681 c0 -5 9 -11 20 -14 18 -5 20 -14 20 -116 0 -61 5 -121 11
-135 17 -35 67 -56 138 -56 118 0 134 21 139 184 4 106 6 119 23 123 39 11 17
23 -41 23 -58 0 -80 -12 -40 -23 19 -5 20 -14 20 -120 0 -97 -3 -116 -18 -130
-31 -29 -74 -31 -105 -7 -27 21 -27 23 -27 137 0 106 1 115 20 120 47 12 14
23 -70 23 -49 0 -90 -4 -90 -9z"/>
<path d="M10050 2681 c0 -5 9 -11 20 -14 19 -5 20 -14 20 -137 0 -123 -1 -132
-20 -137 -47 -12 -14 -23 70 -23 84 0 117 11 70 23 -17 4 -20 14 -20 61 0 31
2 56 5 56 2 0 23 -31 46 -70 l41 -70 64 0 c66 0 78 7 45 27 -10 7 -39 39 -65
71 l-45 59 25 11 c50 23 53 95 7 132 -22 17 -41 20 -144 20 -66 0 -119 -4
-119 -9z m188 -23 c17 -17 15 -74 -4 -92 -32 -32 -44 -20 -44 44 0 51 3 60 18
60 10 0 23 -5 30 -12z"/>
<path d="M10420 2681 c0 -5 9 -11 20 -14 19 -5 20 -14 20 -137 0 -123 -1 -132
-20 -137 -40 -11 -18 -23 40 -23 58 0 80 12 40 23 -18 5 -20 14 -20 93 0 48 4
84 8 79 5 -6 43 -52 86 -102 73 -88 79 -93 117 -93 l39 0 0 146 c0 137 1 146
20 151 40 11 18 23 -40 23 -58 0 -80 -12 -40 -23 18 -5 20 -14 20 -102 l0 -97
-92 111 -93 110 -52 1 c-29 0 -53 -4 -53 -9z"/>
<path d="M10820 2681 c0 -5 9 -11 20 -14 19 -5 20 -14 20 -137 0 -123 -1 -132
-20 -137 -47 -12 -14 -23 70 -23 84 0 117 11 70 23 -20 5 -20 12 -18 139 3
129 4 133 26 136 12 2 22 8 22 13 0 5 -43 9 -95 9 -52 0 -95 -4 -95 -9z"/>
<path d="M11400 2681 c0 -5 9 -11 20 -14 18 -5 20 -14 20 -116 0 -61 5 -121
11 -135 17 -35 67 -56 138 -56 118 0 134 21 139 184 4 106 6 119 23 123 39 11
17 23 -41 23 -58 0 -80 -12 -40 -23 19 -5 20 -14 20 -120 0 -97 -3 -116 -18
-130 -31 -29 -74 -31 -105 -7 -27 21 -27 23 -27 137 0 106 1 115 20 120 47 12
14 23 -70 23 -49 0 -90 -4 -90 -9z"/>
<path d="M11800 2681 c0 -5 9 -11 20 -14 19 -5 20 -14 20 -137 0 -123 -1 -132
-20 -137 -47 -12 -14 -23 70 -23 84 0 117 11 70 23 -17 4 -20 14 -20 61 0 31
2 56 5 56 2 0 23 -31 46 -70 l41 -70 218 0 218 0 6 28 c4 15 9 35 12 45 8 25
-33 23 -41 -2 -8 -25 -67 -45 -111 -37 l-34 7 0 59 0 60 40 0 c34 0 41 -4 46
-25 3 -14 12 -25 20 -25 10 0 14 15 14 60 0 64 -16 81 -35 38 -7 -17 -20 -24
-47 -26 l-38 -3 0 57 0 57 52 -5 c39 -4 56 -11 66 -27 23 -35 42 -26 42 19 l0
40 -150 0 c-136 0 -184 -9 -130 -23 20 -5 20 -12 18 -139 l-3 -133 -30 0 c-24
0 -38 11 -81 65 l-52 64 28 17 c48 30 48 98 -2 133 -17 12 -48 16 -140 16 -65
0 -118 -4 -118 -9z m188 -23 c17 -17 15 -74 -4 -92 -32 -32 -44 -20 -44 44 0
51 3 60 18 60 10 0 23 -5 30 -12z"/>
<path d="M3629 2621 c-23 -24 -29 -38 -29 -74 0 -38 5 -49 31 -71 69 -59 169
-15 169 74 0 33 -6 48 -29 71 -23 23 -38 29 -71 29 -33 0 -48 -6 -71 -29z"/>
<path d="M12759 2621 c-40 -40 -41 -106 -3 -145 40 -39 105 -37 146 4 28 28
30 36 25 78 -7 60 -41 92 -98 92 -31 0 -47 -7 -70 -29z"/>
<path d="M5350 1469 c152 -19 349 -78 531 -158 l96 -42 89 27 c77 23 108 27
224 27 111 1 149 -3 213 -21 156 -45 269 -123 329 -229 17 -29 36 -53 43 -53
58 0 212 74 386 186 99 63 80 74 -52 30 -57 -19 -138 -39 -180 -45 -211 -29
-372 73 -265 167 46 40 120 57 246 57 121 0 181 -16 263 -72 l52 -36 60 23
c140 53 348 122 407 135 54 12 -111 13 -1222 13 -734 0 -1257 -4 -1220 -9z"/>
<path d="M8030 1463 c30 -9 62 -16 70 -16 8 0 40 7 70 16 l55 16 -125 0 -125
0 55 -16z"/>
<path d="M8383 1470 c58 -10 270 -79 386 -126 47 -19 89 -34 94 -34 4 0 29 14
54 32 69 47 137 69 233 75 251 15 410 -108 252 -195 -94 -52 -239 -47 -421 14
-164 56 -153 35 48 -85 134 -81 205 -113 273 -126 34 -7 36 -5 65 47 61 107
173 185 330 230 64 18 102 22 213 21 116 0 147 -4 224 -27 l89 -27 96 42 c182
80 379 139 531 158 37 5 -490 9 -1225 9 -709 0 -1268 -4 -1242 -8z"/>
<path d="M6940 1400 c-62 -8 -115 -31 -124 -55 -39 -103 109 -154 310 -105 94
22 164 48 164 61 0 17 -84 70 -134 83 -69 19 -149 25 -216 16z"/>
<path d="M9097 1399 c-78 -11 -197 -72 -197 -100 0 -4 44 -23 98 -40 82 -27
113 -33 197 -33 78 -1 108 3 137 17 44 22 65 65 48 97 -26 49 -163 77 -283 59z"/>
<path d="M8066 1370 c-51 -62 -55 -138 -9 -217 29 -52 53 -55 84 -11 24 33 37
124 25 172 -6 26 -52 86 -66 86 -5 0 -20 -14 -34 -30z"/>
<path d="M7398 1312 c-32 -14 -58 -29 -58 -34 0 -14 20 -9 68 19 56 32 56 32
51 36 -2 2 -30 -7 -61 -21z"/>
<path d="M8770 1315 c0 -6 62 -45 73 -45 19 0 4 18 -28 33 -38 18 -45 20 -45
12z"/>
<path d="M6185 1303 c-61 -13 -155 -45 -155 -52 0 -14 285 -140 410 -182 63
-21 144 -43 180 -48 69 -12 160 -15 160 -6 0 3 -12 29 -26 57 -54 107 -177
193 -319 223 -65 14 -204 18 -250 8z"/>
<path d="M9760 1295 c-139 -31 -261 -118 -314 -223 -14 -28 -26 -54 -26 -57 0
-9 91 -6 160 6 36 5 117 27 180 48 122 41 410 169 410 182 0 5 -30 18 -67 30
-88 28 -252 35 -343 14z"/>
</g>
</svg>
